solid guitarhero-wallmount_01
facet normal 0.819231920519039 1.91228413281162e-19 0.57346234436333
outer loop
vertex 3.5 5.0 0.125
vertex 3.4125 0.125 0.25
vertex 3.5 0.0 0.125
endloop
endfacet
facet normal 0.819231920519039 1.91228413281162e-19 0.57346234436333
outer loop
vertex 3.4125 0.125 0.25
vertex 3.5 5.0 0.125
vertex 3.4125 4.87499999999999 0.25
endloop
endfacet
facet normal 0.0 0.0 -1.0
outer loop
vertex 3.5 5.0 0.0
vertex 0.0 0.0 0.0
vertex 0.0 5.0 0.0
endloop
endfacet
facet normal 0.0 0.0 -1.0
outer loop
vertex 0.0 0.0 0.0
vertex 3.5 5.0 0.0
vertex 3.5 0.0 0.0
endloop
endfacet
facet normal -0.0 1.0 0.0
outer loop
vertex 0.0 5.0 0.125
vertex 3.5 5.0 0.0
vertex 0.0 5.0 0.0
endloop
endfacet
facet normal -0.0 1.0 0.0
outer loop
vertex 3.5 5.0 0.0
vertex 0.0 5.0 0.125
vertex 3.5 5.0 0.125
endloop
endfacet
facet normal -3.40923444759004e-16 0.640819781274669 0.767691349389249
outer loop
vertex 3.125 0.934016994374957 2.375
vertex 2.625 2.89562034595534 0.737578617425539
vertex 2.625 0.934016994374957 2.375
endloop
endfacet
facet normal -3.40923444759004e-16 0.640819781274669 0.767691349389249
outer loop
vertex 2.625 2.89562034595534 0.737578617425539
vertex 3.125 0.934016994374957 2.375
vertex 3.125 2.89562034595534 0.737578617425539
endloop
endfacet
facet normal -0.0 -0.0 1.0
outer loop
vertex 3.5 0.0 0.125
vertex 0.0 5.0 0.125
vertex 0.0 0.0 0.125
endloop
endfacet
facet normal -0.0 -0.0 1.0
outer loop
vertex 0.0 5.0 0.125
vertex 3.5 0.0 0.125
vertex 3.5 5.0 0.125
endloop
endfacet
facet normal -4.31323682379898e-16 0.238043117995478 0.971254587621078
outer loop
vertex 3.125 2.89562034595534 0.737578617425539
vertex 2.625 4.375 0.375
vertex 2.625 2.89562034595534 0.737578617425539
endloop
endfacet
facet normal -4.31323682379898e-16 0.238043117995478 0.971254587621078
outer loop
vertex 2.625 4.375 0.375
vertex 3.125 2.89562034595534 0.737578617425539
vertex 3.125 4.375 0.375
endloop
endfacet
facet normal 1.0 0.0 0.0
outer loop
vertex 3.5 5.0 0.0
vertex 3.5 0.0 0.125
vertex 3.5 0.0 0.0
endloop
endfacet
facet normal 1.0 0.0 0.0
outer loop
vertex 3.5 0.0 0.125
vertex 3.5 5.0 0.0
vertex 3.5 5.0 0.125
endloop
endfacet
facet normal -0.0 -1.0 -0.0
outer loop
vertex 3.5 0.0 0.125
vertex 0.0 0.0 0.0
vertex 3.5 0.0 0.0
endloop
endfacet
facet normal -0.0 -1.0 -0.0
outer loop
vertex 0.0 0.0 0.0
vertex 3.5 0.0 0.125
vertex 0.0 0.0 0.125
endloop
endfacet
facet normal -1.0 0.0 0.0
outer loop
vertex 0.0 5.0 0.125
vertex 0.0 0.0 0.0
vertex 0.0 0.0 0.125
endloop
endfacet
facet normal -1.0 0.0 0.0
outer loop
vertex 0.0 0.0 0.0
vertex 0.0 5.0 0.125
vertex 0.0 5.0 0.0
endloop
endfacet
facet normal 0.0 -0.98031382999673 0.1974456753569
outer loop
vertex 3.125 0.736918182837868 0.930671539858981
vertex 2.753495 0.625 0.375
vertex 3.125 0.625 0.375
endloop
endfacet
facet normal 0.0 -0.98031382999673 0.1974456753569
outer loop
vertex 2.753495 0.625 0.375
vertex 3.125 0.736918182837868 0.930671539858981
vertex 2.753495 0.736918182837868 0.930671539858981
endloop
endfacet
facet normal -0.81923192051904 -2.8684261992159e-19 0.573462344363329
outer loop
vertex 0.0875000000000001 0.125 0.25
vertex 0.0 5.0 0.125
vertex 0.0 0.0 0.125
endloop
endfacet
facet normal -0.81923192051904 -2.8684261992159e-19 0.573462344363329
outer loop
vertex 0.0 5.0 0.125
vertex 0.0875000000000001 0.125 0.25
vertex 0.0875000000000001 4.87499999999999 0.25
endloop
endfacet
facet normal -0.391503657225553 -0.5030626243519 0.770488729547159
outer loop
vertex 2.753495 0.625 0.375
vertex 2.625 0.725000000000012 0.375
vertex 2.53310232093969 0.605068979824406 0.25
endloop
endfacet
facet normal -0.0 -0.0 1.0
outer loop
vertex 2.753495 0.625 2.375
vertex 2.625 0.934016994374957 2.375
vertex 2.625 0.725000000000012 2.375
endloop
endfacet
facet normal -0.0 -0.0 1.0
outer loop
vertex 2.625 0.934016994374957 2.375
vertex 2.753495 0.625 2.375
vertex 3.125 0.934016994374957 2.375
endloop
endfacet
facet normal -0.0 -0.0 1.0
outer loop
vertex 3.125 0.934016994374957 2.375
vertex 2.753495 0.625 2.375
vertex 3.125 0.625 2.375
endloop
endfacet
facet normal 8.97544416039014e-32 0.70710678118651 0.707106781186585
outer loop
vertex 0.0875000000000001 4.87499999999999 0.25
vertex 3.5 5.0 0.125
vertex 0.0 5.0 0.125
endloop
endfacet
facet normal 8.97544416039014e-32 0.70710678118651 0.707106781186585
outer loop
vertex 3.5 5.0 0.125
vertex 0.0875000000000001 4.87499999999999 0.25
vertex 3.4125 4.87499999999999 0.25
endloop
endfacet
facet normal -2.61783788011421e-33 -0.707106781186549 0.707106781186546
outer loop
vertex 3.4125 0.125 0.25
vertex 0.0 0.0 0.125
vertex 3.5 0.0 0.125
endloop
endfacet
facet normal -2.61783788011421e-33 -0.707106781186549 0.707106781186546
outer loop
vertex 0.0 0.0 0.125
vertex 3.4125 0.125 0.25
vertex 0.0875000000000001 0.125 0.25
endloop
endfacet
facet normal -1.0 0.0 0.0
outer loop
vertex 2.625 0.934016994374957 2.375
vertex 2.625 0.836918182837871 0.930671539858981
vertex 2.625 0.725000000000012 2.375
endloop
endfacet
facet normal -1.0 0.0 0.0
outer loop
vertex 2.625 0.836918182837871 0.930671539858981
vertex 2.625 4.375 0.375
vertex 2.625 0.725000000000012 0.375
endloop
endfacet
facet normal -1.0 0.0 0.0
outer loop
vertex 2.625 4.375 0.375
vertex 2.625 0.836918182837871 0.930671539858981
vertex 2.625 2.89562034595534 0.737578617425539
endloop
endfacet
facet normal -1.0 0.0 0.0
outer loop
vertex 2.625 2.89562034595534 0.737578617425539
vertex 2.625 0.836918182837871 0.930671539858981
vertex 2.625 0.934016994374957 2.375
endloop
endfacet
facet normal -0.613022929124901 -0.787703812778962 -0.0610376252864743
outer loop
vertex 2.753495 0.625 2.375
vertex 2.625 0.836918182837871 0.930671539858981
vertex 2.753495 0.736918182837868 0.930671539858981
endloop
endfacet
facet normal -0.613022929124901 -0.787703812778962 -0.0610376252864743
outer loop
vertex 2.625 0.836918182837871 0.930671539858981
vertex 2.753495 0.625 2.375
vertex 2.625 0.725000000000012 2.375
endloop
endfacet
facet normal -0.355807962796805 -0.593439683450803 0.721962627645087
outer loop
vertex 2.753495 0.625 0.375
vertex 2.53310232093969 0.605068979824406 0.25
vertex 2.70834320548139 0.499999999999999 0.25
endloop
endfacet
facet normal 0.0 -0.997011254252759 -0.077256448878656
outer loop
vertex 3.125 0.625 2.375
vertex 2.753495 0.736918182837868 0.930671539858981
vertex 3.125 0.736918182837868 0.930671539858981
endloop
endfacet
facet normal 0.0 -0.997011254252759 -0.077256448878656
outer loop
vertex 2.753495 0.736918182837868 0.930671539858981
vertex 3.125 0.625 2.375
vertex 2.753495 0.625 2.375
endloop
endfacet
facet normal -0.606553700604222 -0.779391177591316 0.156977707258535
outer loop
vertex 2.753495 0.736918182837868 0.930671539858981
vertex 2.625 0.725000000000012 0.375
vertex 2.753495 0.625 0.375
endloop
endfacet
facet normal -0.606553700604222 -0.779391177591316 0.156977707258535
outer loop
vertex 2.625 0.725000000000012 0.375
vertex 2.753495 0.736918182837868 0.930671539858981
vertex 2.625 0.836918182837871 0.930671539858981
endloop
endfacet
facet normal 1.0 -0.0 -0.0
outer loop
vertex 3.125 4.375 0.375
vertex 3.125 0.736918182837868 0.930671539858981
vertex 3.125 0.625 0.375
endloop
endfacet
facet normal 1.0 -0.0 -0.0
outer loop
vertex 3.125 0.736918182837868 0.930671539858981
vertex 3.125 4.375 0.375
vertex 3.125 2.89562034595534 0.737578617425539
endloop
endfacet
facet normal 1.0 -0.0 -0.0
outer loop
vertex 3.125 0.736918182837868 0.930671539858981
vertex 3.125 2.89562034595534 0.737578617425539
vertex 3.125 0.934016994374957 2.375
endloop
endfacet
facet normal 1.0 -0.0 -0.0
outer loop
vertex 3.125 0.934016994374957 2.375
vertex 3.125 0.625 2.375
vertex 3.125 0.736918182837868 0.930671539858981
endloop
endfacet
facet normal 0.0 0.0 -1.0
outer loop
vertex 3.125 4.375 0.375
vertex 2.625 0.725000000000012 0.375
vertex 2.625 4.375 0.375
endloop
endfacet
facet normal 0.0 0.0 -1.0
outer loop
vertex 2.625 0.725000000000012 0.375
vertex 3.125 4.375 0.375
vertex 2.753495 0.625 0.375
endloop
endfacet
facet normal 0.0 0.0 -1.0
outer loop
vertex 2.753495 0.625 0.375
vertex 3.125 4.375 0.375
vertex 3.125 0.625 0.375
endloop
endfacet
facet normal 0.353728259522448 -0.454523127073301 0.817487030704908
outer loop
vertex 0.872870999999994 0.725000000000013 0.375
vertex 0.744375999999996 0.625 0.375
vertex 0.87263967906031 0.499999999999999 0.25
endloop
endfacet
facet normal 0.484837366318031 -0.425126253211582 0.764330031499532
outer loop
vertex 0.964768679060311 0.605068979824406 0.25
vertex 0.872870999999994 0.725000000000013 0.375
vertex 0.87263967906031 0.499999999999999 0.25
endloop
endfacet
facet normal 3.40923444759004e-16 0.640819781274669 0.767691349389249
outer loop
vertex 0.872870999999994 0.934016994374957 2.375
vertex 0.372870999999995 2.89562034595534 0.737578617425539
vertex 0.372870999999995 0.934016994374957 2.375
endloop
endfacet
facet normal 3.40923444759004e-16 0.640819781274669 0.767691349389249
outer loop
vertex 0.372870999999995 2.89562034595534 0.737578617425539
vertex 0.872870999999994 0.934016994374957 2.375
vertex 0.872870999999994 2.89562034595534 0.737578617425539
endloop
endfacet
facet normal 4.31323682379898e-16 0.238043117995478 0.971254587621078
outer loop
vertex 0.872870999999994 2.89562034595534 0.737578617425539
vertex 0.372870999999995 4.375 0.375
vertex 0.372870999999995 2.89562034595534 0.737578617425539
endloop
endfacet
facet normal 4.31323682379898e-16 0.238043117995478 0.971254587621078
outer loop
vertex 0.372870999999995 4.375 0.375
vertex 0.872870999999994 2.89562034595534 0.737578617425539
vertex 0.872870999999994 4.375 0.375
endloop
endfacet
facet normal 0.0 -0.98031382999673 0.1974456753569
outer loop
vertex 0.744375999999996 0.736918182837868 0.930671539858981
vertex 0.372870999999995 0.625 0.375
vertex 0.744375999999996 0.625 0.375
endloop
endfacet
facet normal 0.0 -0.98031382999673 0.1974456753569
outer loop
vertex 0.372870999999995 0.625 0.375
vertex 0.744375999999996 0.736918182837868 0.930671539858981
vertex 0.372870999999995 0.736918182837868 0.930671539858981
endloop
endfacet
facet normal 0.0 0.0 1.0
outer loop
vertex 0.744375999999996 0.625 2.375
vertex 0.372870999999995 0.934016994374957 2.375
vertex 0.372870999999995 0.625 2.375
endloop
endfacet
facet normal 0.0 0.0 1.0
outer loop
vertex 0.372870999999995 0.934016994374957 2.375
vertex 0.744375999999996 0.625 2.375
vertex 0.872870999999994 0.934016994374957 2.375
endloop
endfacet
facet normal 0.0 0.0 1.0
outer loop
vertex 0.872870999999994 0.934016994374957 2.375
vertex 0.744375999999996 0.625 2.375
vertex 0.872870999999994 0.725000000000013 2.375
endloop
endfacet
facet normal 1.0 0.0 0.0
outer loop
vertex 0.872870999999994 4.375 0.375
vertex 0.872870999999994 0.836918182837871 0.930671539858981
vertex 0.872870999999994 0.725000000000013 0.375
endloop
endfacet
facet normal 1.0 0.0 0.0
outer loop
vertex 0.872870999999994 0.836918182837871 0.930671539858981
vertex 0.872870999999994 4.375 0.375
vertex 0.872870999999994 2.89562034595534 0.737578617425539
endloop
endfacet
facet normal 1.0 0.0 0.0
outer loop
vertex 0.872870999999994 0.836918182837871 0.930671539858981
vertex 0.872870999999994 2.89562034595534 0.737578617425539
vertex 0.872870999999994 0.934016994374957 2.375
endloop
endfacet
facet normal 1.0 0.0 0.0
outer loop
vertex 0.872870999999994 0.934016994374957 2.375
vertex 0.872870999999994 0.725000000000013 2.375
vertex 0.872870999999994 0.836918182837871 0.930671539858981
endloop
endfacet
facet normal 0.613022929124901 -0.787703812778962 -0.0610376252864743
outer loop
vertex 0.872870999999994 0.725000000000013 2.375
vertex 0.744375999999996 0.736918182837868 0.930671539858981
vertex 0.872870999999994 0.836918182837871 0.930671539858981
endloop
endfacet
facet normal 0.613022929124901 -0.787703812778962 -0.0610376252864743
outer loop
vertex 0.744375999999996 0.736918182837868 0.930671539858981
vertex 0.872870999999994 0.725000000000013 2.375
vertex 0.744375999999996 0.625 2.375
endloop
endfacet
facet normal 0.0 -0.997011254252759 -0.077256448878656
outer loop
vertex 0.744375999999996 0.625 2.375
vertex 0.372870999999995 0.736918182837868 0.930671539858981
vertex 0.744375999999996 0.736918182837868 0.930671539858981
endloop
endfacet
facet normal 0.0 -0.997011254252759 -0.077256448878656
outer loop
vertex 0.372870999999995 0.736918182837868 0.930671539858981
vertex 0.744375999999996 0.625 2.375
vertex 0.372870999999995 0.625 2.375
endloop
endfacet
facet normal 0.606553700604222 -0.779391177591315 0.156977707258535
outer loop
vertex 0.872870999999994 0.836918182837871 0.930671539858981
vertex 0.744375999999996 0.625 0.375
vertex 0.872870999999994 0.725000000000013 0.375
endloop
endfacet
facet normal 0.606553700604222 -0.779391177591315 0.156977707258535
outer loop
vertex 0.744375999999996 0.625 0.375
vertex 0.872870999999994 0.836918182837871 0.930671539858981
vertex 0.744375999999996 0.736918182837868 0.930671539858981
endloop
endfacet
facet normal -1.0 0.0 0.0
outer loop
vertex 0.372870999999995 0.934016994374957 2.375
vertex 0.372870999999995 0.736918182837868 0.930671539858981
vertex 0.372870999999995 0.625 2.375
endloop
endfacet
facet normal -1.0 0.0 0.0
outer loop
vertex 0.372870999999995 0.736918182837868 0.930671539858981
vertex 0.372870999999995 4.375 0.375
vertex 0.372870999999995 0.625 0.375
endloop
endfacet
facet normal -1.0 0.0 0.0
outer loop
vertex 0.372870999999995 4.375 0.375
vertex 0.372870999999995 0.736918182837868 0.930671539858981
vertex 0.372870999999995 2.89562034595534 0.737578617425539
endloop
endfacet
facet normal -1.0 0.0 0.0
outer loop
vertex 0.372870999999995 2.89562034595534 0.737578617425539
vertex 0.372870999999995 0.736918182837868 0.930671539858981
vertex 0.372870999999995 0.934016994374957 2.375
endloop
endfacet
facet normal 0.0 0.0 -1.0
outer loop
vertex 0.872870999999994 4.375 0.375
vertex 0.372870999999995 0.625 0.375
vertex 0.372870999999995 4.375 0.375
endloop
endfacet
facet normal 0.0 0.0 -1.0
outer loop
vertex 0.372870999999995 0.625 0.375
vertex 0.872870999999994 4.375 0.375
vertex 0.744375999999996 0.625 0.375
endloop
endfacet
facet normal 0.0 0.0 -1.0
outer loop
vertex 0.744375999999996 0.625 0.375
vertex 0.872870999999994 4.375 0.375
vertex 0.872870999999994 0.725000000000013 0.375
endloop
endfacet
facet normal -1.38616133067222e-17 0.549441419698186 0.835532241340837
outer loop
vertex 0.372870999999995 4.375 0.375
vertex 0.964768679060311 4.56508674341475 0.25
vertex 0.282870999999998 4.56508674341475 0.25
endloop
endfacet
facet normal -1.38616133067222e-17 0.549441419698186 0.835532241340837
outer loop
vertex 0.964768679060311 4.56508674341475 0.25
vertex 0.372870999999995 4.375 0.375
vertex 0.872870999999994 4.375 0.375
endloop
endfacet
facet normal 0.805694340830821 0.0 0.592331519635068
outer loop
vertex 0.964768679060311 4.56508674341475 0.25
vertex 0.872870999999994 0.725000000000013 0.375
vertex 0.964768679060311 0.605068979824406 0.25
endloop
endfacet
facet normal 0.805694340830821 0.0 0.592331519635068
outer loop
vertex 0.872870999999994 0.725000000000013 0.375
vertex 0.964768679060311 4.56508674341475 0.25
vertex 0.872870999999994 4.375 0.375
endloop
endfacet
facet normal -0.811534341451495 4.60250391426517e-20 0.584304725845076
outer loop
vertex 0.372870999999995 0.625 0.375
vertex 0.282870999999998 4.56508674341475 0.25
vertex 0.282870999999998 0.499999999999999 0.25
endloop
endfacet
facet normal -0.811534341451495 4.60250391426517e-20 0.584304725845076
outer loop
vertex 0.282870999999998 4.56508674341475 0.25
vertex 0.372870999999995 0.625 0.375
vertex 0.372870999999995 4.375 0.375
endloop
endfacet
facet normal 1.38616133067222e-17 0.549441419698186 0.835532241340837
outer loop
vertex 2.625 4.375 0.375
vertex 3.215 4.56508674341475 0.25
vertex 2.53310232093969 4.56508674341475 0.25
endloop
endfacet
facet normal 1.38616133067222e-17 0.549441419698186 0.835532241340837
outer loop
vertex 3.215 4.56508674341475 0.25
vertex 2.625 4.375 0.375
vertex 3.125 4.375 0.375
endloop
endfacet
facet normal -0.805694340830821 0.0 0.592331519635068
outer loop
vertex 2.625 0.725000000000012 0.375
vertex 2.53310232093969 4.56508674341475 0.25
vertex 2.53310232093969 0.605068979824406 0.25
endloop
endfacet
facet normal -0.805694340830821 0.0 0.592331519635068
outer loop
vertex 2.53310232093969 4.56508674341475 0.25
vertex 2.625 0.725000000000012 0.375
vertex 2.625 4.375 0.375
endloop
endfacet
facet normal -0.0 -0.0 1.0
outer loop
vertex 2.70834320548139 0.499999999999999 0.25
vertex 2.53310232093969 4.56508674341475 0.25
vertex 2.53310232093969 0.605068979824406 0.25
endloop
endfacet
facet normal -0.0 -0.0 1.0
outer loop
vertex 2.53310232093969 4.56508674341475 0.25
vertex 2.70834320548139 0.499999999999999 0.25
vertex 3.215 4.56508674341475 0.25
endloop
endfacet
facet normal -0.0 -0.0 1.0
outer loop
vertex 3.215 4.56508674341475 0.25
vertex 2.70834320548139 0.499999999999999 0.25
vertex 3.215 0.499999999999999 0.25
endloop
endfacet
facet normal 1.08767060415978e-17 -0.707106781186545 0.70710678118655
outer loop
vertex 3.215 0.499999999999999 0.25
vertex 2.753495 0.625 0.375
vertex 2.70834320548139 0.499999999999999 0.25
endloop
endfacet
facet normal 1.08767060415978e-17 -0.707106781186545 0.70710678118655
outer loop
vertex 2.753495 0.625 0.375
vertex 3.215 0.499999999999999 0.25
vertex 3.125 0.625 0.375
endloop
endfacet
facet normal 0.811534341451495 4.60250391426517e-20 0.584304725845075
outer loop
vertex 3.215 4.56508674341475 0.25
vertex 3.125 0.625 0.375
vertex 3.215 0.499999999999999 0.25
endloop
endfacet
facet normal 0.811534341451495 4.60250391426517e-20 0.584304725845075
outer loop
vertex 3.125 0.625 0.375
vertex 3.215 4.56508674341475 0.25
vertex 3.125 4.375 0.375
endloop
endfacet
facet normal 1.2623775399685e-18 -0.707106781186545 0.70710678118655
outer loop
vertex 0.87263967906031 0.499999999999999 0.25
vertex 0.372870999999995 0.625 0.375
vertex 0.282870999999998 0.499999999999999 0.25
endloop
endfacet
facet normal 1.2623775399685e-18 -0.707106781186545 0.70710678118655
outer loop
vertex 0.372870999999995 0.625 0.375
vertex 0.87263967906031 0.499999999999999 0.25
vertex 0.744375999999996 0.625 0.375
endloop
endfacet
facet normal -0.0 -0.0 1.0
outer loop
vertex 0.87263967906031 0.499999999999999 0.25
vertex 0.282870999999998 4.56508674341475 0.25
vertex 0.282870999999998 0.499999999999999 0.25
endloop
endfacet
facet normal -0.0 -0.0 1.0
outer loop
vertex 0.282870999999998 4.56508674341475 0.25
vertex 0.87263967906031 0.499999999999999 0.25
vertex 0.964768679060311 4.56508674341475 0.25
endloop
endfacet
facet normal -0.0 -0.0 1.0
outer loop
vertex 0.964768679060311 4.56508674341475 0.25
vertex 0.87263967906031 0.499999999999999 0.25
vertex 0.964768679060311 0.605068979824406 0.25
endloop
endfacet
facet normal -0.0 -0.0 1.0
outer loop
vertex 0.0875000000000001 0.125 0.25
vertex 0.282870999999998 0.499999999999999 0.25
vertex 0.0875000000000001 4.87499999999999 0.25
endloop
endfacet
facet normal -0.0 -0.0 1.0
outer loop
vertex 0.282870999999998 0.499999999999999 0.25
vertex 0.0875000000000001 0.125 0.25
vertex 3.4125 0.125 0.25
endloop
endfacet
facet normal -0.0 -0.0 1.0
outer loop
vertex 0.282870999999998 0.499999999999999 0.25
vertex 3.4125 0.125 0.25
vertex 0.87263967906031 0.499999999999999 0.25
endloop
endfacet
facet normal -0.0 -0.0 1.0
outer loop
vertex 0.87263967906031 0.499999999999999 0.25
vertex 3.4125 0.125 0.25
vertex 0.964768679060311 0.605068979824406 0.25
endloop
endfacet
facet normal -0.0 -0.0 1.0
outer loop
vertex 0.964768679060311 0.605068979824406 0.25
vertex 3.4125 0.125 0.25
vertex 2.70834320548139 0.499999999999999 0.25
endloop
endfacet
facet normal -0.0 -0.0 1.0
outer loop
vertex 0.964768679060311 0.605068979824406 0.25
vertex 2.70834320548139 0.499999999999999 0.25
vertex 2.53310232093969 0.605068979824406 0.25
endloop
endfacet
facet normal -0.0 -0.0 1.0
outer loop
vertex 0.964768679060311 0.605068979824406 0.25
vertex 2.53310232093969 0.605068979824406 0.25
vertex 0.964768679060311 4.56508674341475 0.25
endloop
endfacet
facet normal -0.0 -0.0 1.0
outer loop
vertex 2.70834320548139 0.499999999999999 0.25
vertex 3.4125 0.125 0.25
vertex 3.215 0.499999999999999 0.25
endloop
endfacet
facet normal -0.0 -0.0 1.0
outer loop
vertex 3.215 0.499999999999999 0.25
vertex 3.4125 0.125 0.25
vertex 3.215 4.56508674341475 0.25
endloop
endfacet
facet normal -0.0 -0.0 1.0
outer loop
vertex 0.0875000000000001 4.87499999999999 0.25
vertex 0.282870999999998 4.56508674341475 0.25
vertex 3.4125 4.87499999999999 0.25
endloop
endfacet
facet normal -0.0 -0.0 1.0
outer loop
vertex 0.282870999999998 4.56508674341475 0.25
vertex 0.0875000000000001 4.87499999999999 0.25
vertex 0.282870999999998 0.499999999999999 0.25
endloop
endfacet
facet normal -0.0 -0.0 1.0
outer loop
vertex 3.4125 4.87499999999999 0.25
vertex 0.282870999999998 4.56508674341475 0.25
vertex 0.964768679060311 4.56508674341475 0.25
endloop
endfacet
facet normal -0.0 -0.0 1.0
outer loop
vertex 3.4125 4.87499999999999 0.25
vertex 0.964768679060311 4.56508674341475 0.25
vertex 2.53310232093969 4.56508674341475 0.25
endloop
endfacet
facet normal -0.0 -0.0 1.0
outer loop
vertex 2.53310232093969 4.56508674341475 0.25
vertex 0.964768679060311 4.56508674341475 0.25
vertex 2.53310232093969 0.605068979824406 0.25
endloop
endfacet
facet normal -0.0 -0.0 1.0
outer loop
vertex 3.4125 4.87499999999999 0.25
vertex 2.53310232093969 4.56508674341475 0.25
vertex 3.215 4.56508674341475 0.25
endloop
endfacet
facet normal -0.0 -0.0 1.0
outer loop
vertex 3.4125 4.87499999999999 0.25
vertex 3.215 4.56508674341475 0.25
vertex 3.4125 0.125 0.25
endloop
endfacet
endsolid guitarhero-wallmount_01
